<?xml version="1.0" standalone="no"?>
<!DOCTYPE svg PUBLIC "-//W3C//DTD SVG 20010904//EN"
 "http://www.w3.org/TR/2001/REC-SVG-20010904/DTD/svg10.dtd">
<svg version="1.0" xmlns="http://www.w3.org/2000/svg"
 width="300.000000pt" height="300.000000pt" viewBox="0 0 300.000000 300.000000"
 preserveAspectRatio="xMidYMid meet">

<g transform="translate(0.000000,300.000000) scale(0.100000,-0.100000)"
fill="#000000" stroke="none">
<path d="M424 2543 c3 -21 6 -66 6 -100 l0 -63 45 0 45 0 0 55 0 55 1003 -2
1002 -3 -2 -495 c-1 -272 -3 -619 -3 -770 0 -179 -4 -270 -10 -260 -5 8 -132
307 -282 663 l-272 648 -74 -3 -74 -3 -23 -55 c-12 -30 -91 -217 -175 -415
-84 -198 -165 -390 -180 -427 -14 -38 -30 -71 -33 -75 -4 -3 -7 177 -7 400 l0
406 111 3 110 3 35 79 c19 44 34 81 34 83 0 2 -281 3 -625 3 l-625 0 0 -85 0
-85 203 -2 202 -3 3 -822 2 -823 90 0 90 0 0 825 0 826 93 -3 92 -3 3 -822 2
-823 705 0 705 0 0 100 0 100 -45 0 c-29 0 -45 -5 -46 -12 -1 -7 -2 -17 -4
-23 -1 -5 -3 -25 -3 -42 l-2 -33 -565 0 -565 0 0 139 0 139 89 213 c158 379
392 924 401 933 4 4 18 -14 30 -40 39 -90 190 -452 190 -458 0 -3 -58 -6 -128
-6 l-129 0 -26 -67 c-14 -38 -29 -76 -33 -85 -6 -17 8 -18 194 -18 l200 0 43
-102 c23 -57 73 -175 110 -263 l67 -160 111 -3 111 -3 0 911 0 910 -1101 0
-1102 0 7 -37z"/>
<path d="M430 1220 l0 -770 150 0 150 0 0 45 0 45 -105 0 -105 0 0 725 0 725
-45 0 -45 0 0 -770z"/>
</g>
</svg>
